# xmcd
#
# Track frame offsets:
#	150
#	14676
#	27098
#	44897
#	56150
#	70033
#	82572
#	96046
#	114196
#	128781
#	142956
#
# Disc length: 2105 seconds
#
# Revision: 0
# Processed by: cddbd v1.5.2PL0 Copyright (c) Steve Scherf et al.
# Submitted via: EZCDAudioConverter 2.2.2.1
#
DISCID=8a08370b
DTITLE=Thopper - Blessed are the dreamers
DYEAR=2017
DGENRE=country
TTITLE0=Welcome to my honky tonk nights
TTITLE1=Some broken hearts
TTITLE2=Back to yesterdays
TTITLE3=Blessed are the dreamers
TTITLE4=You've never been this far before
TTITLE5=The year that Clayton Delaney died
TTITLE6=Droptop Cadillac
TTITLE7=Country bumpkin
TTITLE8=She's a chip off the old block
TTITLE9=Angels have choices
TTITLE10=A billion stars shining down on our christmas tree
EXTD=
EXTT0=
EXTT1=
EXTT2=
EXTT3=
EXTT4=
EXTT5=
EXTT6=
EXTT7=
EXTT8=
EXTT9=
EXTT10=
PLAYORDER=
